<svg width="81" height="69" viewBox="0 0 81 69" fill="none" xmlns="http://www.w3.org/2000/svg">
<path fill-rule="evenodd" clip-rule="evenodd" d="M71.2675 23.8797C63.083 20.6536 54.8182 20.9983 52.7232 24.7742C50.6061 28.5819 53.6925 37.5945 59.5079 45.0784C65.3233 52.5623 73.5466 52.3158 78.0812 44.1437C82.5453 35.9994 79.4299 27.0935 71.2689 23.8797" fill="#FF9700"/>
<path fill-rule="evenodd" clip-rule="evenodd" d="M29.5754 26.4885C36.8364 31.4468 44.9669 32.9478 47.8524 29.7313C50.7601 26.4885 49.7563 17.019 45.745 8.43437C41.7338 -0.150309 33.6711 -1.73017 27.4348 5.22342C21.2759 12.1729 22.3379 21.5412 29.5782 26.4885" fill="#006ECD"/>
<path fill-rule="evenodd" clip-rule="evenodd" d="M22.269 29.9253C21.9533 29.8939 21.6345 29.9295 21.3335 30.0298C21.0325 30.13 20.756 30.2927 20.5222 30.5072C20.2884 30.7217 20.1024 30.9831 19.9766 31.2744C19.8508 31.5657 19.7878 31.8802 19.7919 32.1975V33.5655H23.3075C23.3075 33.5655 23.4266 45.1714 23.2937 46.3871C23.2876 47.2646 23.0403 48.1236 22.5787 48.8699C22.1172 49.6162 21.4591 50.2212 20.6767 50.6185C18.7992 51.5144 18.7632 52.3618 18.6427 53.1108C18.4862 54.0884 18.6704 54.2185 19.3807 54.0385C22.1763 53.3531 25.1504 52.2302 26.6541 49.4693C27.522 47.7391 27.9171 45.8102 27.7992 43.8782V33.5627C28.1184 33.5899 28.4397 33.552 28.7437 33.4513C29.0478 33.3506 29.3282 33.1892 29.568 32.9768C29.8078 32.7645 30.002 32.5057 30.1387 32.216C30.2755 31.9264 30.352 31.612 30.3635 31.2919V29.9253H22.269ZM18.3575 45.5716C17.3713 46.8312 16.1118 47.8503 14.674 48.5516C13.2362 49.253 11.6578 49.6184 10.058 49.6202C7.40528 49.5665 4.8793 48.475 3.02223 46.5799C1.16516 44.6849 0.125 42.1373 0.125 39.4841C0.125 36.8308 1.16516 34.2832 3.02223 32.3882C4.8793 30.4931 7.40528 29.4016 10.058 29.3479C11.6444 29.3614 13.2074 29.7319 14.631 30.4321C16.0546 31.1323 17.3023 32.1441 18.2813 33.3924C17.5054 34.2451 16.466 34.813 15.3293 35.0055C14.6609 34.9563 14.0216 34.7122 13.4905 34.3035C12.4878 33.5931 11.2868 33.2167 10.058 33.2276C8.44745 33.296 6.92964 33.9999 5.83704 35.1852C4.74443 36.3704 4.16611 37.9404 4.22875 39.5512C4.20071 40.6607 4.47874 41.7566 5.03235 42.7185C5.58596 43.6805 6.39377 44.4715 7.3672 45.0047C8.34063 45.5379 9.44209 45.7927 10.5508 45.7413C11.6595 45.6899 12.7326 45.3341 13.6525 44.7131C14.1933 44.3098 14.8423 44.0773 15.5162 44.0457C16.0674 44.099 16.6026 44.261 17.0907 44.5224C17.5789 44.7839 18.0104 45.1395 18.3602 45.5688" fill="white"/>
<path d="M31.9419 52.6689C35.6513 43.9457 42.0275 36.8675 46.3822 36.8647C50.7022 36.8647 55.0222 43.9111 56.1881 52.6301C57.3498 61.3255 51.0844 68.3788 41.7949 68.4425C32.4515 68.4522 28.2394 61.3809 31.9433 52.6675" fill="#EF151E"/>
</svg>
